<svg xmlns="http://www.w3.org/2000/svg" xmlns:xlink="http://www.w3.org/1999/xlink" width="17" height="15" viewBox="0 0 17 15"><defs><path id="2wfoa" d="M1272.9 211.02a35.066 35.066 0 0 1-.66 5.44.667.667 0 0 1-.65.537.662.662 0 0 1-.532-.27c-1.658-2.24-4.495-3.57-7.152-3.57h-1.25c0 .765.296 1.58.821 2.116.133.136.143.35.024.499l-.683 1.089a.371.371 0 0 1-.545.037 5.023 5.023 0 0 1-1.554-3.648c-2.054 0-3.719-1.679-3.719-3.75 0-2.071 1.665-3.656 3.719-3.656h3.187c2.657 0 5.494-1.331 7.152-3.571a.662.662 0 0 1 1.183.266c.363 1.798.58 3.617.659 5.44a1.6 1.6 0 0 1 0 3.042zm-10.015.863v-4.798h-2.52c-1.27 0-2.208 1.135-2.208 2.415s.939 2.383 2.208 2.383zm8.255-7.592c-1.91 1.692-4.105 2.727-6.748 2.861v4.696c2.643.134 4.838 1.17 6.748 2.861a36.001 36.001 0 0 0 0-10.418z"/></defs><g><g transform="translate(-1257 -202)"><use fill="#e0e0e0" xlink:href="#2wfoa"/></g></g></svg>