<svg xmlns="http://www.w3.org/2000/svg" xmlns:xlink="http://www.w3.org/1999/xlink" width="17" height="19" viewBox="0 0 17 19"><defs><path id="yzqoa" d="M1351 35.438c0 .983-.815 1.562-1.821 1.562h-4.857c0 .984-.816 1.781-1.822 1.781-1.006 0-1.821-.797-1.821-1.781h-4.857c-1.007 0-1.822-.579-1.822-1.562 0-.846.376-1.649 1.03-2.202 1.17-.99 2.006-3.618 2.006-6.705 0-2.337 1.536-4.318 3.673-5.044A1.806 1.806 0 0 1 1342.5 20c.903 0 1.647.644 1.791 1.487 2.137.726 3.673 2.707 3.673 5.044 0 3.088.837 5.716 2.007 6.705a2.882 2.882 0 0 1 1.03 2.202zm-1.568-.103c0-.34-.15-.663-.414-.886-1.688-1.428-2.737-4.296-2.737-8.024 0-2.039-1.696-3.697-3.78-3.697-2.086 0-3.782 1.658-3.782 3.697 0 3.728-1.049 6.596-2.737 8.023a1.162 1.162 0 0 0-.414.887z"/></defs><g><g transform="translate(-1334 -20)"><use fill="#a56ea3" xlink:href="#yzqoa"/><use fill="#e0e0e0" xlink:href="#yzqoa"/></g></g></svg>