<svg xmlns="http://www.w3.org/2000/svg" xmlns:xlink="http://www.w3.org/1999/xlink" width="15" height="16" viewBox="0 0 15 16"><defs><path id="3dsba" d="M1265.5 355c-4.136 0-7.5-3.26-7.5-7.266 0-2.376 1.21-4.607 3.239-5.968.12-.08.255-.12.39-.124a.731.731 0 0 1 .62.301.69.69 0 0 1-.184.979c-1.636 1.098-2.613 2.897-2.613 4.812 0 3.231 2.713 5.86 6.048 5.86s6.048-2.629 6.048-5.86c0-1.915-.977-3.714-2.613-4.812a.69.69 0 0 1-.184-.979.732.732 0 0 1 .606-.302c.14.002.281.042.404.125 2.028 1.36 3.239 3.592 3.239 5.968 0 4.007-3.364 7.266-7.5 7.266zm0-9.375a.715.715 0 0 1-.726-.703v-5.219c0-.388.325-.703.726-.703.401 0 .726.315.726.703v5.219a.715.715 0 0 1-.726.703z"/></defs><g><g transform="translate(-1258 -339)"><use fill="#e0e0e0" xlink:href="#3dsba"/></g></g></svg>