<svg xmlns="http://www.w3.org/2000/svg" xmlns:xlink="http://www.w3.org/1999/xlink" width="14" height="15" viewBox="0 0 14 15"><defs><path id="sufxa" d="M1272 89.594v.468a.935.935 0 0 1-.933.938h-12.134a.936.936 0 0 1-.933-.938v-.468c0-2.307 1.475-4.31 3.645-5.345a5.925 5.925 0 0 1-.845-3.093c0-2.848 1.88-5.156 4.2-5.156 2.32 0 4.2 2.308 4.2 5.156a5.925 5.925 0 0 1-.845 3.093c2.17 1.035 3.645 3.038 3.645 5.345zm-9.8-8.438c0 2.033 1.282 3.75 2.8 3.75 1.518 0 2.8-1.717 2.8-3.75 0-2.032-1.282-3.75-2.8-3.75-1.518 0-2.8 1.718-2.8 3.75zm8.4 8.438c0-1.86-1.302-3.469-3.183-4.225-.684.592-1.516.943-2.417.943-.9 0-1.733-.35-2.417-.943-1.88.756-3.183 2.364-3.183 4.225z"/></defs><g><g transform="translate(-1258 -76)"><use fill="#e0e0e0" xlink:href="#sufxa"/></g></g></svg>