<svg xmlns="http://www.w3.org/2000/svg" xmlns:xlink="http://www.w3.org/1999/xlink" width="18" height="18" viewBox="0 0 18 18"><defs><path id="i04ia" d="M1303.86 38.215l-.645.645a.456.456 0 0 1-.644 0l-5.608-5.609c-1.15.878-2.57 1.42-4.128 1.42a6.836 6.836 0 1 1 6.836-6.836c0 1.558-.542 2.978-1.42 4.128l5.609 5.608a.456.456 0 0 1 0 .644zm-11.025-15.392a5.013 5.013 0 1 0 0 10.025 5.013 5.013 0 0 0 0-10.025z"/></defs><g><g transform="translate(-1286 -21)"><use fill="#e0e0e0" xlink:href="#i04ia"/></g></g></svg>