<svg xmlns="http://www.w3.org/2000/svg" xmlns:xlink="http://www.w3.org/1999/xlink" width="15" height="16" viewBox="0 0 15 16"><defs><path id="u50aa" d="M1265.488 307.587h-.009a2.456 2.456 0 0 1-1.77-.763 2.607 2.607 0 0 1-.73-1.83c.006-1.42 1.13-2.574 2.509-2.574a2.46 2.46 0 0 1 1.78.763c.472.49.73 1.14.728 1.83-.005 1.42-1.13 2.574-2.508 2.574zm.005-3.937c-.727 0-1.317.605-1.319 1.35-.001.36.134.7.382.957.247.257.576.398.927.4l.005.615v-.615c.722 0 1.31-.605 1.314-1.35a1.365 1.365 0 0 0-.382-.957 1.287 1.287 0 0 0-.927-.4zm1.244 9.355h-.002l-2.303-.009a.6.6 0 0 1-.575-.458l-.478-1.867a5.771 5.771 0 0 1-1.536-.855l-1.737.474a.588.588 0 0 1-.67-.29l-1.145-2.058a.629.629 0 0 1 .099-.744l1.203-1.219a6.112 6.112 0 0 1-.024-1.79l-1.397-1.447a.629.629 0 0 1-.092-.743l1.16-2.05a.592.592 0 0 1 .675-.284l1.907.544a5.723 5.723 0 0 1 1.602-.89l.52-1.868a.6.6 0 0 1 .574-.448h.003l2.256.009a.6.6 0 0 1 .575.458l.536 2.094c.394.196.769.438 1.118.726l2.095-.57a.59.59 0 0 1 .671.289l1.144 2.058a.63.63 0 0 1-.1.744l-1.626 1.648a5.599 5.599 0 0 1-.028 1.359l1.396 1.447c.19.197.228.502.092.742l-1.159 2.051a.587.587 0 0 1-.675.283l-1.908-.545c-.33.26-.682.481-1.053.661l-.54 2.091a.6.6 0 0 1-.578.457zm-1.842-1.237l1.384.005.496-1.918a.61.61 0 0 1 .35-.41 4.64 4.64 0 0 0 1.26-.794.58.58 0 0 1 .547-.124l1.759.502.696-1.233-1.288-1.335a.627.627 0 0 1-.163-.549c.056-.303.086-.603.087-.893.001-.211-.016-.433-.053-.697a.626.626 0 0 1 .172-.528l1.509-1.528-.687-1.236-1.952.531a.582.582 0 0 1-.55-.135 4.633 4.633 0 0 0-1.308-.852.61.61 0 0 1-.349-.412l-.491-1.922-1.345-.005-.492 1.748a.606.606 0 0 1-.406.414 4.566 4.566 0 0 0-1.726.958.586.586 0 0 1-.547.125l-1.758-.503-.697 1.233 1.288 1.335c.14.145.2.35.163.55a4.9 4.9 0 0 0-.086.89c-.002.344.037.704.115 1.07a.628.628 0 0 1-.164.57l-1.103 1.118.688 1.237 1.583-.432a.581.581 0 0 1 .538.124 4.6 4.6 0 0 0 1.678.93c.2.06.355.224.408.432z"/></defs><g><g transform="translate(-1258 -297)"><use fill="#e0e0e0" xlink:href="#u50aa"/></g></g></svg>