<svg xmlns="http://www.w3.org/2000/svg" xmlns:xlink="http://www.w3.org/1999/xlink" width="14" height="14" viewBox="0 0 14 14"><defs><path id="kayla" d="M1271.793 255.263a7.76 7.76 0 0 1-5.532 2.298c-1.432 0-2.8-.391-3.997-1.109a2.179 2.179 0 0 1-2.079 1.547 2.188 2.188 0 0 1-2.185-2.191c0-.985.652-1.808 1.543-2.085a7.804 7.804 0 0 1-1.106-4.009c0-2.096.814-4.066 2.292-5.548a.66.66 0 0 1 .935 0l4.6 4.615 1.367-1.37c-.007-.05-.015-.1-.015-.151 0-.606.489-1.096 1.092-1.096.604 0 1.093.49 1.093 1.096 0 .605-.49 1.096-1.093 1.096-.051 0-.1-.009-.15-.016l-1.366 1.37 4.6 4.615a.664.664 0 0 1 0 .938zm-10.733.545a.876.876 0 0 0-.875-.877.875.875 0 0 0-.874.877.875.875 0 1 0 1.749 0zm9.307-1.038l-9.148-9.174a6.483 6.483 0 0 0-1.46 4.118c0 1.742.676 3.38 1.904 4.611a6.45 6.45 0 0 0 4.598 1.91c1.514 0 2.95-.516 4.106-1.465z"/></defs><g><g transform="translate(-1258 -244)"><use fill="#e0e0e0" xlink:href="#kayla"/></g></g></svg>