<svg xmlns="http://www.w3.org/2000/svg" xmlns:xlink="http://www.w3.org/1999/xlink" width="20" height="15" viewBox="0 0 20 15"><defs><path id="au1wa" d="M1274.267 173h-2.311c-.03-.46-.075-.88-.143-1.253h1.754c0-1.375-.945-2.565-2.311-3.124-.255.225-.539.4-.842.52-.536-.462-1.214-.848-2.102-1.243.074-.114.12-.241.18-.361.302.239.643.387 1.008.387 1.113 0 2.054-1.283 2.054-2.801 0-1.518-.94-2.8-2.054-2.8-.237 0-.463.068-.678.174a6.06 6.06 0 0 0-.528-1.205c.374-.185.78-.294 1.206-.294 1.823 0 3.3 1.847 3.3 4.125 0 .93-.25 1.785-.664 2.474 1.705.828 2.864 2.43 2.864 4.276v.375c0 .414-.328.75-.733.75zm-5.267-.406v.469a.935.935 0 0 1-.933.937h-12.134a.935.935 0 0 1-.933-.937v-.47c0-2.306 1.475-4.309 3.645-5.344a5.926 5.926 0 0 1-.845-3.093c0-2.848 1.88-5.156 4.2-5.156 2.32 0 4.2 2.308 4.2 5.156 0 1.163-.317 2.231-.845 3.093 2.17 1.035 3.645 3.038 3.645 5.345zm-9.8-8.438c0 2.033 1.282 3.75 2.8 3.75 1.518 0 2.8-1.717 2.8-3.75 0-2.032-1.282-3.75-2.8-3.75-1.518 0-2.8 1.718-2.8 3.75zm8.4 8.438c0-1.86-1.302-3.469-3.183-4.225-.684.592-1.516.943-2.417.943-.9 0-1.733-.35-2.417-.943-1.881.756-3.183 2.364-3.183 4.225z"/></defs><g><g transform="translate(-1255 -159)"><use fill="#e0e0e0" xlink:href="#au1wa"/></g></g></svg>