<svg xmlns="http://www.w3.org/2000/svg" xmlns:xlink="http://www.w3.org/1999/xlink" width="12" height="11" viewBox="0 0 12 11"><defs><path id="4oena" d="M451.03 305.853c-.71 0-1.173.445-1.173 1.023 0 .565.449 1.022 1.143 1.022.738 0 1.186-.457 1.186-1.022-.014-.578-.448-1.023-1.157-1.023zm1.084 9.43v-6.577h-2.199v6.577zm1.316 0h2.2v-3.793c0-.189.014-.377.072-.511.16-.377.52-.767 1.128-.767.795 0 1.114.579 1.114 1.426v3.645h2.199v-3.887c0-1.937-1.085-2.838-2.531-2.838-1.187 0-1.896.632-2.185 1.062h-.044l-.101-.914h-1.91c.03.591.058 1.277.058 2.098z"/></defs><g><g transform="translate(-449 -305)"><use fill="#d9dce2" xlink:href="#4oena"/></g></g></svg>