<svg xmlns="http://www.w3.org/2000/svg" xmlns:xlink="http://www.w3.org/1999/xlink" width="11" height="11" viewBox="0 0 11 11"><defs><path id="per1a" d="M397 307.83c-.41.19-.85.318-1.313.375a2.374 2.374 0 0 0 1.005-1.316c-.441.272-.93.47-1.452.577a2.242 2.242 0 0 0-1.668-.752c-1.263 0-2.286 1.066-2.286 2.38 0 .187.02.369.059.543-1.9-.1-3.585-1.047-4.712-2.487-.197.351-.31.76-.31 1.197 0 .825.404 1.554 1.017 1.98a2.206 2.206 0 0 1-1.035-.297v.03c0 1.153.788 2.115 1.834 2.334a2.203 2.203 0 0 1-1.033.04c.291.946 1.135 1.635 2.136 1.654a4.473 4.473 0 0 1-3.385.985 6.284 6.284 0 0 0 3.504 1.07c4.205 0 6.505-3.627 6.505-6.772a6.97 6.97 0 0 0-.007-.308A4.755 4.755 0 0 0 397 307.83z"/></defs><g><g transform="translate(-386 -306)"><use fill="#d9dce2" xlink:href="#per1a"/></g></g></svg>