<svg xmlns="http://www.w3.org/2000/svg" xmlns:xlink="http://www.w3.org/1999/xlink" width="27" height="24" viewBox="0 0 27 24"><defs><path id="jxyta" d="M1006.154 164.417l.07 1.706 1.412.898-1.562.607-.407 1.66-1.036-1.33-1.663.127.922-1.43-.621-1.58 1.606.447zm2.922 4.714l-.429.569.203.689-.647-.247-.566.419.03-.723-.553-.43.666-.198.224-.685.382.599zm1.824-4.274l-.518 1.151.617 1.093-1.212-.153-.81.952-.232-1.245-1.119-.505 1.07-.618.12-1.263.891.864zm-23.284 3.084l-1.288-.128-.798 1.04-.32-1.323-1.21-.507 1.09-.69.05-1.354.993.897 1.241-.33-.476 1.245zm2.225-.203l-.756-.034-.447.63-.212-.76-.719-.257.625-.436.003-.789.599.491.72-.23-.255.739zm-2.972 3.977l-.82-.54-.875.379.221-.96-.643-.756.956-.052.477-.846.37.927.938.233-.727.625zm8.439-8.864s-.161-.482-.435-.6c-.273-.118-.246-1.115.145-1.35.352-.213.318-.775.19-.883.186.053.698.27.534 1.182 0 0 .265-.168.29-.45 0 0 .365.586.145 1.2-.22.615-.486.475-.87.9zm-.1-2.833c-.058-.017-.084-.017-.045-.018.016 0 .031.006.046.018zm-.335 3.133h1.014c.16 0 .29.134.29.3v.825l-1.593.825v-1.65c0-.166.13-.3.29-.3zm1.449 4.05l9.27 4.502s.434.132.434.75v2.272s.141.45-.434.45c-.576 0-13.76-1.65-13.76-1.65s-.435-.112-.435-.45v-1.972s.015-.476.29-.6c.274-.125.639-.206 1.158-.15.52.054 9.85 1.05 9.85 1.05l-6.518-3.24v.84c0 .165-.13.3-.29.3h-1.014a.295.295 0 0 1-.29-.3v-.751l1.594-.9v-.164zm-6.228 3.301l-.145 10.203s-.057.565.29.6c.346.035.868 0 .868 0s.237.056.29-.3c.019-.126.024-.89.023-1.826l14.598 1.928c.003 1.323.008 2.448.008 2.448s-.023.414-.724.45c-.701.036-15.933-1.8-15.933-1.8s-.58-.067-.579-.6v-10.952s-.067-.509.434-.75c.45-.218 4.535-2.346 5.36-2.776v-.976l1.593-.9v1.125l-1.593.826v1.038zm1.303 4.674s.08-.538.58-.45c.498.087 13.615 1.65 13.615 1.65s.46.087.434.6c-.011.22-.013 1.455-.011 2.797l-14.599-1.929c-.006-1.372-.019-2.668-.019-2.668z"/></defs><g><g transform="translate(-984 -160)"><use fill="#e2e2e2" xlink:href="#jxyta"/></g></g></svg>