<svg xmlns="http://www.w3.org/2000/svg" xmlns:xlink="http://www.w3.org/1999/xlink" width="19" height="17" viewBox="0 0 19 17"><defs><path id="hcyva" d="M258.5 392.574c4.35 0 7.89 2.585 7.89 5.762 0 3.178-3.54 5.763-7.89 5.763l-.267.001h-.2c-.31 0-.512-.008-.83-.056l-.63-.093-.406.502c-.186.23-1.434 1.442-2.482 1.956.213-.577.667-1.62.681-2.243l.006-.034v-.804l-.614-.32c-2-1.047-3.148-2.75-3.148-4.672 0-3.177 3.54-5.762 7.89-5.762zm-9.5 5.712c0 2.505 1.452 4.69 3.963 6.002 0 .015-.005.027-.005.044 0 1.088-.596 2.285-.946 2.901a.556.556 0 0 0-.043.217c0 .305.24.55.538.55.045 0 .116-.01.142-.01.006 0 .01 0 .01.002 1.855-.31 3.895-1.986 4.301-2.492.417.064.699.073 1.048.073l.492-.002c5.246 0 9.5-3.261 9.5-7.285S263.746 391 258.5 391c-5.247 0-9.5 3.262-9.5 7.286z"/></defs><g><g transform="translate(-249 -391)"><use fill="#30a1d6" xlink:href="#hcyva"/><use fill="#7b8487" xlink:href="#hcyva"/></g></g></svg>