<svg xmlns="http://www.w3.org/2000/svg" xmlns:xlink="http://www.w3.org/1999/xlink" width="17" height="16" viewBox="0 0 17 16"><defs><path id="6ryla" d="M262.219 300.6a3.197 3.197 0 0 1 3.187 3.2c0 4.714-5.012 8.209-6.906 9.36-1.894-1.151-6.906-4.646-6.906-9.36 0-1.765 1.43-3.2 3.187-3.2.966 0 1.87.434 2.48 1.192a1.59 1.59 0 0 0 2.478 0 3.17 3.17 0 0 1 2.48-1.192c.966 0 0 0 0 0zm-3.719.186a4.764 4.764 0 0 0-3.719-1.786c-2.64 0-4.781 2.149-4.781 4.8 0 6.4 7.437 10.667 8.5 11.2 1.062-.533 8.5-4.8 8.5-11.2 0-2.651-2.14-4.8-4.781-4.8a4.763 4.763 0 0 0-3.719 1.786z"/></defs><g><g transform="translate(-250 -299)"><use fill="#30a1d6" xlink:href="#6ryla"/><use fill="#7b8487" xlink:href="#6ryla"/></g></g></svg>